HIERARCHY
ROOT Hips
{
	OFFSET 0.000000 0.000000 0.000000
	CHANNELS 6 Xposition Yposition Zposition Xrotation Yrotation Zrotation
	JOINT LeftUpLeg_virtual
	{
		OFFSET 0.000000 0.000000 0.000000
		CHANNELS 3 Xrotation Yrotation Zrotation
		JOINT LeftUpLeg
		{
			OFFSET 15.427100 -6.655098 0.678600
			CHANNELS 3 Xrotation Yrotation Zrotation
			JOINT LeftLeg
			{
				OFFSET 4.081073 -39.591068 13.024000
				CHANNELS 3 Xrotation Yrotation Zrotation
				JOINT LeftFoot
				{
					OFFSET -4.081074 -37.707932 -15.979700
					CHANNELS 3 Xrotation Yrotation Zrotation
					JOINT LeftToeBase
					{
						OFFSET 5.346399 -15.068900 20.645000
						CHANNELS 3 Xrotation Yrotation Zrotation
						JOINT LeftToe_End
						{
							OFFSET 2.754700 0.931300 11.300900
							CHANNELS 3 Xrotation Yrotation Zrotation
							End Site
							{
								OFFSET 0 0 0
							}
						}
					}
				}
			}
		}
	}
	JOINT RightUpLeg_virtual
	{
		OFFSET 0.000000 0.000000 0.000000
		CHANNELS 3 Xrotation Yrotation Zrotation
		JOINT RightUpLeg
		{
			OFFSET -15.569500 -6.655098 0.678600
			CHANNELS 3 Xrotation Yrotation Zrotation
			JOINT RightLeg
			{
				OFFSET -4.081825 -39.591045 13.023800
				CHANNELS 3 Xrotation Yrotation Zrotation
				JOINT RightFoot
				{
					OFFSET 4.081824 -37.707954 -15.979600
					CHANNELS 3 Xrotation Yrotation Zrotation
					JOINT RightToeBase
					{
						OFFSET -5.346400 -15.068900 20.645000
						CHANNELS 3 Xrotation Yrotation Zrotation
						JOINT RightToe_End
						{
							OFFSET -2.754700 0.931300 11.300900
							CHANNELS 3 Xrotation Yrotation Zrotation
							End Site
							{
								OFFSET 0 0 0
							}
						}
					}
				}
			}
		}
	}
	JOINT Spine_virtual
	{
		OFFSET 0.000000 0.000000 0.000000
		CHANNELS 3 Xrotation Yrotation Zrotation
		JOINT Spine
		{
			OFFSET -0.279200 12.230698 -2.892100
			CHANNELS 3 Xrotation Yrotation Zrotation
			JOINT Spine1
			{
				OFFSET -0.232667 10.192268 -1.242267
				CHANNELS 3 Xrotation Yrotation Zrotation
				JOINT Spine1_split
				{
					OFFSET -0.232667 10.192268 -1.242267
					CHANNELS 3 Xrotation Yrotation Zrotation
					JOINT Spine2
					{
						OFFSET -0.232667 10.192268 -1.242267
						CHANNELS 3 Xrotation Yrotation Zrotation
						JOINT Neck_virtual
						{
							OFFSET 0.000000 0.000000 0.000000
							CHANNELS 3 Xrotation Yrotation Zrotation
							JOINT Neck
							{
								OFFSET -0.418800 17.814194 8.416900
								CHANNELS 3 Xrotation Yrotation Zrotation
								JOINT Head
								{
									OFFSET 0.000000 7.031097 3.806800
									CHANNELS 3 Xrotation Yrotation Zrotation
									JOINT HeadTop_End
									{
										OFFSET 0.000000 24.646606 12.978600
										CHANNELS 3 Xrotation Yrotation Zrotation
										End Site
										{
											OFFSET 0 0 0
										}
									}
								}
							}
						}
						JOINT LeftShoulder_virtual
						{
							OFFSET 0.000000 0.000000 0.000000
							CHANNELS 3 Xrotation Yrotation Zrotation
							JOINT LeftShoulder
							{
								OFFSET 8.476499 7.247704 -3.868750
								CHANNELS 3 Xrotation Yrotation Zrotation
								JOINT LeftShoulder_split
								{
									OFFSET 8.476499 7.247704 -3.868750
									CHANNELS 3 Xrotation Yrotation Zrotation
									JOINT LeftArm
									{
										OFFSET 9.308998 -2.777710 0.208600
										CHANNELS 3 Xrotation Yrotation Zrotation
										JOINT LeftForeArm
										{
											OFFSET 29.972298 0.000000 0.000000
											CHANNELS 3 Xrotation Yrotation Zrotation
											JOINT LeftHand
											{
												OFFSET 26.026505 0.000000 0.000000
												CHANNELS 3 Xrotation Yrotation Zrotation
												End Site
												{
													OFFSET 0 0 0
												}
											}
										}
									}
								}
							}
						}
						JOINT RightShoulder_virtual
						{
							OFFSET 0.000000 0.000000 0.000000
							CHANNELS 3 Xrotation Yrotation Zrotation
							JOINT RightShoulder
							{
								OFFSET -7.570500 7.247704 -3.868750
								CHANNELS 3 Xrotation Yrotation Zrotation
								JOINT RightShoulder_split
								{
									OFFSET -7.570500 7.247704 -3.868750
									CHANNELS 3 Xrotation Yrotation Zrotation
									JOINT RightArm
									{
										OFFSET -9.308998 -2.777710 0.208500
										CHANNELS 3 Xrotation Yrotation Zrotation
										JOINT RightForeArm
										{
											OFFSET -29.972300 0.000000 0.000000
											CHANNELS 3 Xrotation Yrotation Zrotation
											JOINT RightHand
											{
												OFFSET -26.026505 0.000000 0.000000
												CHANNELS 3 Xrotation Yrotation Zrotation
												End Site
												{
													OFFSET 0 0 0
												}
											}
										}
									}
								}
							}
						}
					}
				}
			}
		}
	}
}
MOTION
Frames: 11
Frame Time: 0.03333333
2.291347 93.351555 -11.852474 0.000000 0.000000 0.000000 0.433811 4.505392 -0.530400 -16.757739 30.091167 16.975354 18.539637 2.043151 2.170539 -3.313960 12.496818 -19.349835 2.838611 -3.447576 1.127190 0.000000 0.000000 0.000000 0.859803 5.950163 -0.635483 -9.337555 -12.562329 -5.854759 12.656645 8.390998 2.610795 -7.095755 0.563353 9.644568 6.026310 0.452139 -14.547424 0.000000 0.000000 0.000000 -0.796120 9.774324 -1.150324 -0.724769 -0.123375 1.791745 2.118736 0.190178 1.060926 0.077724 0.168054 -0.076015 0.000000 0.000000 0.000000 0.102224 2.547108 1.581682 -2.700669 6.835404 3.937334 -13.862419 -35.565440 -13.785018 0.000000 0.000000 0.000000 -0.593550 0.804452 0.586549 -1.715002 7.147063 -5.045937 -1.990496 -0.430640 -0.515786 59.459488 -60.363163 -8.291890 -2.643572 -28.027910 -1.713561 0.000000 0.000000 0.000000 1.023060 1.208830 1.147959 -2.066302 -0.647944 3.389872 -0.557739 -1.338347 0.732637 10.008439 36.007261 65.577719 -9.721000 22.304635 1.220459 0.000000 0.000000 0.000000 
2.313614 93.336960 -11.819378 0.000000 0.000000 0.000000 0.459654 4.503915 -0.560998 -16.664576 30.040681 16.928718 18.466881 2.104073 2.235002 -3.321582 12.578565 -19.303747 2.807274 -3.468677 1.166186 0.000000 0.000000 0.000000 0.889190 5.882145 -0.663503 -9.294609 -12.346445 -5.852966 12.688118 8.343779 2.579724 -7.197567 0.498138 9.618931 6.139271 0.442195 -14.567665 0.000000 0.000000 0.000000 -0.761613 9.808636 -1.204466 -0.762903 -0.156102 1.889721 2.232298 0.204856 1.088969 0.117033 0.160542 -0.069434 0.000000 0.000000 0.000000 0.208433 2.555240 1.585418 -2.857229 6.958663 4.113993 -14.178025 -35.192840 -13.997600 0.000000 0.000000 0.000000 -0.484984 0.802843 0.594076 -1.679073 6.932613 -5.185555 -2.113401 -0.489759 -0.347287 59.832211 -60.663910 -8.154337 -2.472005 -28.045937 -1.538395 0.000000 0.000000 0.000000 1.126268 1.212869 1.153570 -2.033737 -0.726969 3.086536 -0.621141 -1.228700 0.486502 10.107075 35.585272 65.376392 -9.714253 22.295638 1.269517 0.000000 0.000000 0.000000 
2.384658 93.311966 -11.751919 0.000000 0.000000 0.000000 0.481642 4.412345 -0.511188 -16.389935 30.086020 16.763904 18.276970 2.196124 2.254653 -3.431085 12.668435 -18.944844 2.793077 -3.491683 1.215769 0.000000 0.000000 0.000000 0.923686 5.700869 -0.612705 -9.445296 -12.108793 -5.973259 12.901408 8.206761 2.599021 -7.266822 0.374540 9.632809 6.367045 0.438151 -14.578007 0.000000 0.000000 0.000000 -0.860418 9.828687 -1.183404 -0.823253 -0.182441 1.986055 2.393579 0.196374 1.032459 0.118255 0.122316 -0.083930 0.000000 0.000000 0.000000 0.443402 2.556509 1.503565 -3.281555 7.181649 4.548904 -14.545240 -34.492978 -14.316150 0.000000 0.000000 0.000000 -0.322360 0.785703 0.533074 -1.665685 6.631749 -5.248648 -2.164879 -0.514771 -0.202556 60.383428 -61.005146 -7.957059 -2.540402 -28.204621 -1.465880 0.000000 0.000000 0.000000 1.242537 1.178316 1.104944 -1.984799 -0.912625 2.812376 -1.329375 -0.730126 0.608939 10.230432 35.517684 65.206607 -9.329880 21.575277 1.039082 0.000000 0.000000 0.000000 
2.491085 93.276764 -11.670036 0.000000 0.000000 0.000000 0.479546 4.243477 -0.357329 -15.982409 30.222283 16.476891 18.002439 2.298817 2.214901 -3.607895 12.772353 -18.345712 2.929002 -3.509210 1.244449 0.000000 0.000000 0.000000 0.960581 5.492865 -0.454491 -9.788858 -11.836064 -6.240812 13.293315 8.031847 2.668398 -7.228650 0.221878 9.791845 6.610089 0.450604 -14.579664 0.000000 0.000000 0.000000 -1.088260 9.920448 -1.050107 -0.884578 -0.185783 2.050441 2.594745 0.178125 0.891281 0.088106 0.049910 -0.092205 0.000000 0.000000 0.000000 0.739024 2.561809 1.335942 -3.937675 7.436783 5.227339 -14.893074 -33.751615 -14.679680 0.000000 0.000000 0.000000 -0.130475 0.770361 0.396209 -1.683271 6.257646 -5.171441 -2.233761 -0.505183 -0.135627 61.035076 -61.271831 -7.675723 -2.792469 -28.538598 -1.474920 0.000000 0.000000 0.000000 1.373461 1.130766 0.989203 -1.930233 -1.069954 2.666570 -2.078892 -0.146514 1.010928 10.303532 35.970659 65.009392 -8.648948 20.513249 0.597417 0.000000 0.000000 0.000000 
2.618507 93.240814 -11.606144 0.000000 0.000000 0.000000 0.443103 4.094751 -0.107060 -15.529560 30.406401 16.092262 17.692068 2.368323 2.114550 -3.743860 12.871891 -17.679489 3.241596 -3.515616 1.259732 0.000000 0.000000 0.000000 0.966737 5.309972 -0.208720 -10.278356 -11.477269 -6.640038 13.792687 7.861690 2.777510 -7.090567 0.045248 10.095140 6.790388 0.470419 -14.548130 0.000000 0.000000 0.000000 -1.399336 10.072312 -0.820725 -0.914012 -0.142849 2.084687 2.831976 0.168525 0.670368 0.051270 0.010146 -0.104693 0.000000 0.000000 0.000000 1.025019 2.586388 1.085188 -4.751045 7.659227 6.113338 -15.162441 -33.193558 -15.044062 0.000000 0.000000 0.000000 0.068228 0.767486 0.196587 -1.725894 5.794292 -4.923296 -2.393978 -0.534619 -0.295527 61.744651 -61.427006 -7.263469 -3.097446 -28.988822 -1.502073 0.000000 0.000000 0.000000 1.519336 1.112039 0.800846 -1.876641 -1.030597 2.724851 -2.572275 0.131743 1.476334 10.151377 37.059493 64.706159 -7.766387 19.383250 0.025568 0.000000 0.000000 0.000000 
2.761539 93.208893 -11.592575 0.000000 0.000000 0.000000 0.396676 3.947533 0.207592 -15.113738 30.590447 15.649830 17.383287 2.374189 1.961482 -3.751434 12.970441 -17.083729 3.602252 -3.513900 1.316475 0.000000 0.000000 0.000000 0.937715 5.179882 0.082988 -10.795854 -10.999789 -7.108892 14.286407 7.708063 2.896581 -6.955658 -0.154025 10.447608 6.941092 0.484633 -14.448932 0.000000 0.000000 0.000000 -1.670588 10.259579 -0.550649 -0.896950 -0.024778 2.090142 3.109136 0.191863 0.394979 0.030275 0.021805 -0.092294 0.000000 0.000000 0.000000 1.244573 2.639911 0.788890 -5.641433 7.822692 7.140068 -15.347008 -33.044646 -15.399734 0.000000 0.000000 0.000000 0.223997 0.794914 -0.032804 -1.782521 5.272833 -4.535801 -2.686060 -0.706271 -0.680045 62.505848 -61.576519 -6.640430 -3.324234 -29.377682 -1.497029 0.000000 0.000000 0.000000 1.647876 1.134362 0.556297 -1.814656 -0.641556 2.954805 -2.886899 -0.048146 1.890283 9.602228 38.768273 64.186361 -6.793287 18.121187 -0.627825 0.000000 0.000000 0.000000 
2.920012 93.195152 -11.641109 0.000000 0.000000 0.000000 0.330183 3.791584 0.527374 -14.775651 30.740038 15.188744 17.116266 2.320081 1.779125 -3.629810 13.139004 -16.652150 3.904920 -3.511616 1.433259 0.000000 0.000000 0.000000 0.868052 5.081545 0.356425 -11.231045 -10.426310 -7.540544 14.675922 7.535675 3.003359 -6.864630 -0.367048 10.689550 7.124742 0.475375 -14.245169 0.000000 0.000000 0.000000 -1.845659 10.433294 -0.304228 -0.841489 0.161704 2.059237 3.389766 0.240831 0.101769 0.044932 0.088679 -0.083106 0.000000 0.000000 0.000000 1.385055 2.709156 0.485627 -6.557206 7.952244 8.163018 -15.446002 -33.378656 -15.723041 0.000000 0.000000 0.000000 0.334352 0.845751 -0.252861 -1.838518 4.760768 -4.063187 -3.077152 -0.940114 -1.171375 63.373903 -61.826128 -5.737983 -3.383043 -29.592129 -1.429508 0.000000 0.000000 0.000000 1.760888 1.195715 0.295705 -1.758303 0.149613 3.213151 -2.736006 -0.576818 2.193021 8.400579 41.169942 63.430280 -5.888014 16.597075 -1.381190 0.000000 0.000000 0.000000 
3.095737 93.200394 -11.761658 0.000000 0.000000 0.000000 0.264750 3.577938 0.779031 -14.495207 30.859478 14.740349 16.919681 2.264842 1.591550 -3.481626 13.484801 -16.371789 4.144709 -3.511168 1.567077 0.000000 0.000000 0.000000 0.755636 4.944528 0.566302 -11.544206 -9.820107 -7.885705 14.899636 7.356191 3.109558 -6.756393 -0.540765 10.798545 7.316907 0.435463 -13.935434 0.000000 0.000000 0.000000 -1.858267 10.440409 -0.150937 -0.800560 0.409772 1.972889 3.639246 0.285210 -0.172717 0.079278 0.173959 -0.078070 0.000000 0.000000 0.000000 1.474643 2.761436 0.239580 -7.461722 8.096497 9.047793 -15.436142 -34.082600 -16.007342 0.000000 0.000000 0.000000 0.398125 0.902333 -0.432315 -1.883881 4.349490 -3.570737 -3.472171 -1.042843 -1.591628 64.261807 -62.265828 -4.646762 -3.289718 -29.361945 -1.323491 0.000000 0.000000 0.000000 1.859503 1.265599 0.061745 -1.680202 1.289747 3.388780 -2.600396 -1.398107 2.536287 6.522380 44.416956 62.505124 -5.196796 14.630012 -2.166849 0.000000 0.000000 0.000000 
3.277400 93.209702 -11.891144 0.000000 0.000000 0.000000 0.215851 3.179011 0.909507 -14.191505 30.985542 14.345566 16.798005 2.256567 1.428292 -3.486878 14.098629 -16.216191 4.328112 -3.513285 1.667591 0.000000 0.000000 0.000000 0.620356 4.637481 0.680139 -11.780268 -9.236035 -8.145130 14.898816 7.260147 3.240604 -6.497339 -0.531148 10.901517 7.375015 0.384242 -13.561888 0.000000 0.000000 0.000000 -1.761951 10.191207 -0.103921 -0.820987 0.696363 1.810750 3.831879 0.292906 -0.376611 0.120551 0.202980 -0.066701 0.000000 0.000000 0.000000 1.555526 2.764487 0.115438 -8.325694 8.291333 9.645141 -15.344003 -35.026146 -16.258712 0.000000 0.000000 0.000000 0.415615 0.932115 -0.544896 -1.911021 4.104091 -3.116511 -3.703803 -1.038917 -1.744823 65.078486 -62.893762 -3.566171 -3.139536 -28.602503 -1.250405 0.000000 0.000000 0.000000 1.937076 1.290082 -0.096631 -1.545445 2.644750 3.329874 -2.783117 -2.208934 2.852178 4.097491 48.516732 61.494625 -4.830301 12.520144 -2.908297 0.000000 0.000000 0.000000 
3.463235 93.211792 -12.046291 0.000000 0.000000 0.000000 0.155028 2.457660 0.901170 -13.733563 31.167502 14.001131 16.767966 2.303387 1.304846 -3.765969 14.990616 -16.155072 4.405065 -3.515343 1.703626 0.000000 0.000000 0.000000 0.456106 3.979491 0.671539 -12.002403 -8.676113 -8.345789 14.713652 7.318487 3.419771 -6.012030 -0.214952 11.082002 7.259675 0.338587 -13.180601 0.000000 0.000000 0.000000 -1.632578 9.612106 -0.177742 -0.939036 0.987213 1.571964 3.951877 0.231868 -0.477677 0.153549 0.186505 -0.075890 0.000000 0.000000 0.000000 1.691154 2.684311 0.135098 -9.139252 8.622353 9.853210 -15.231004 -35.895233 -16.435761 0.000000 0.000000 0.000000 0.428865 0.896653 -0.569549 -1.910517 3.998254 -2.732726 -3.777964 -1.017376 -1.737115 65.818852 -63.617803 -2.681147 -3.007797 -27.543274 -1.257340 0.000000 0.000000 0.000000 2.024106 1.229524 -0.160415 -1.337274 4.046635 2.966360 -3.059147 -2.825957 3.300866 1.619064 53.430476 60.204894 -4.771501 10.892921 -3.468661 0.000000 0.000000 0.000000 
3.646765 93.199066 -12.187485 0.000000 0.000000 0.000000 0.065631 1.300533 0.760121 -13.014020 31.420052 13.695596 16.830506 2.387334 1.227145 -4.365862 16.127584 -16.184886 4.310005 -3.509815 1.681431 0.000000 0.000000 0.000000 0.283692 2.840278 0.546046 -12.271011 -8.136227 -8.519323 14.338213 7.547366 3.657472 -5.317517 0.484595 11.326194 7.098143 0.313320 -12.845030 0.000000 0.000000 0.000000 -1.522230 8.667833 -0.360007 -1.160928 1.267924 1.260200 4.010022 0.088360 -0.458836 0.178607 0.113563 -0.069537 0.000000 0.000000 0.000000 1.926942 2.505480 0.298455 -9.869456 9.142833 9.651179 -15.118957 -36.464129 -16.467608 0.000000 0.000000 0.000000 0.446898 0.775958 -0.515244 -1.868002 4.030883 -2.430812 -3.658969 -1.100072 -1.620593 66.567024 -64.329816 -2.036533 -2.935017 -26.453553 -1.383661 0.000000 0.000000 0.000000 2.142856 1.044241 -0.123509 -1.042438 5.317141 2.287078 -3.548327 -3.335394 3.820934 0.212382 58.717067 57.785934 -4.908483 10.136527 -3.763294 0.000000 0.000000 0.000000 
